HIERARCHY
ROOT hip
{
  OFFSET 0 0 0
  CHANNELS 6 Xposition Yposition Zposition Zrotation Yrotation Xrotation
  JOINT abdomen
  {
    OFFSET 0 20.6881 -0.73152
    CHANNELS 3 Zrotation Xrotation Yrotation
    JOINT chest
    {
      OFFSET 0 11.7043 -0.48768
      CHANNELS 3 Zrotation Xrotation Yrotation
      JOINT neck
      {
        OFFSET 0 22.1894 -2.19456
        CHANNELS 3 Zrotation Xrotation Yrotation
        JOINT head
        {
          OFFSET -0.24384 7.07133 1.2192
          CHANNELS 3 Zrotation Xrotation Yrotation
          JOINT leftEye
          {
            OFFSET 4.14528 8.04674 8.04672
            CHANNELS 3 Zrotation Xrotation Yrotation
            End Site
            {
              OFFSET 1 0 0
            }
          }
          JOINT rightEye
          {
            OFFSET -3.6576 8.04674 8.04672
            CHANNELS 3 Zrotation Xrotation Yrotation
            End Site
            {
              OFFSET 1 0 0
            }
          }
        }
      }
      JOINT rCollar
      {
        OFFSET -2.68224 19.2634 -4.8768
        CHANNELS 3 Zrotation Xrotation Yrotation
        JOINT rShldr
        {
          OFFSET -8.77824 -1.95073 1.46304
          CHANNELS 3 Zrotation Xrotation Yrotation
          JOINT rForeArm
          {
            OFFSET -28.1742 -1.7115 0.48768
            CHANNELS 3 Zrotation Xrotation Yrotation
            JOINT rHand
            {
              OFFSET -22.5879 0.773209 7.07136
              CHANNELS 3 Zrotation Xrotation Yrotation
              JOINT rThumb1
              {
                OFFSET -1.2192 -0.487915 3.41376
                CHANNELS 3 Zrotation Xrotation Yrotation
                JOINT rThumb2
                {
                  OFFSET -3.37035 -0.52449 3.41376
                  CHANNELS 3 Zrotation Xrotation Yrotation
                  End Site
                  {
                    OFFSET -1.78271 -1.18214 1.43049
                  }
                }
              }
              JOINT rIndex1
              {
                OFFSET -7.75947 0.938293 5.60832
                CHANNELS 3 Zrotation Xrotation Yrotation
                JOINT rIndex2
                {
                  OFFSET -2.54057 -0.884171 1.56538
                  CHANNELS 3 Zrotation Xrotation Yrotation
                  End Site
                  {
                    OFFSET -1.62519 -0.234802 1.16502
                  }
                }
              }
              JOINT rMid1
              {
                OFFSET -8.24714 1.18213 3.41376
                CHANNELS 3 Zrotation Xrotation Yrotation
                JOINT rMid2
                {
                  OFFSET -3.10165 -0.590103 1.0647
                  CHANNELS 3 Zrotation Xrotation Yrotation
                  End Site
                  {
                    OFFSET -2.48547 -0.328903 0.83742
                  }
                }
              }
              JOINT rRing1
              {
                OFFSET -8.82822 0.546677 1.51678
                CHANNELS 3 Zrotation Xrotation Yrotation
                JOINT rRing2
                {
                  OFFSET -2.60934 -0.819778 -0.0198488
                  CHANNELS 3 Zrotation Xrotation Yrotation
                  End Site
                  {
                    OFFSET -2.33842 -0.294052 0.168128
                  }
                }
              }
              JOINT rPinky1
              {
                OFFSET -8.27202 -0.0477905 -0.4584
                CHANNELS 3 Zrotation Xrotation Yrotation
                JOINT rPinky2
                {
                  OFFSET -1.82734 -0.647385 -0.700984
                  CHANNELS 3 Zrotation Xrotation Yrotation
                  End Site
                  {
                    OFFSET -1.69225 -0.51767 -0.607171
                  }
                }
              }
            }
          }
        }
      }
      JOINT lCollar
      {
        OFFSET 2.68224 19.2634 -4.8768
        CHANNELS 3 Zrotation Xrotation Yrotation
        JOINT lShldr
        {
          OFFSET 8.77824 -1.95073 1.46304
          CHANNELS 3 Zrotation Xrotation Yrotation
          JOINT lForeArm
          {
            OFFSET 28.1742 -1.7115 0.48768
            CHANNELS 3 Zrotation Xrotation Yrotation
            JOINT lHand
            {
              OFFSET 22.5879 0.773209 7.07136
              CHANNELS 3 Zrotation Xrotation Yrotation
              JOINT lThumb1
              {
                OFFSET 1.2192 -0.487915 3.41376
                CHANNELS 3 Zrotation Xrotation Yrotation
                JOINT lThumb2
                {
                  OFFSET 3.37035 -0.52449 3.41376
                  CHANNELS 3 Zrotation Xrotation Yrotation
                  End Site
                  {
                    OFFSET 1.78271 -1.18214 1.43049
                  }
                }
              }
              JOINT lIndex1
              {
                OFFSET 7.75947 0.938293 5.60832
                CHANNELS 3 Zrotation Xrotation Yrotation
                JOINT lIndex2
                {
                  OFFSET 2.54057 -0.884171 1.56538
                  CHANNELS 3 Zrotation Xrotation Yrotation
                  End Site
                  {
                    OFFSET 1.62519 -0.234802 1.16502
                  }
                }
              }
              JOINT lMid1
              {
                OFFSET 8.24714 1.18213 3.41376
                CHANNELS 3 Zrotation Xrotation Yrotation
                JOINT lMid2
                {
                  OFFSET 3.10165 -0.590103 1.0647
                  CHANNELS 3 Zrotation Xrotation Yrotation
                  End Site
                  {
                    OFFSET 2.48547 -0.328903 0.83742
                  }
                }
              }
              JOINT lRing1
              {
                OFFSET 8.82822 0.546677 1.51678
                CHANNELS 3 Zrotation Xrotation Yrotation
                JOINT lRing2
                {
                  OFFSET 2.60934 -0.819778 -0.0198488
                  CHANNELS 3 Zrotation Xrotation Yrotation
                  End Site
                  {
                    OFFSET 2.33842 -0.294052 0.168128
                  }
                }
              }
              JOINT lPinky1
              {
                OFFSET 8.27202 -0.0477905 -0.4584
                CHANNELS 3 Zrotation Xrotation Yrotation
                JOINT lPinky2
                {
                  OFFSET 1.82734 -0.647385 -0.700984
                  CHANNELS 3 Zrotation Xrotation Yrotation
                  End Site
                  {
                    OFFSET 1.69225 -0.51767 -0.607171
                  }
                }
              }
            }
          }
        }
      }
    }
  }
  JOINT rButtock
  {
    OFFSET -8.77824 4.35084 1.2192
    CHANNELS 3 Zrotation Xrotation Yrotation
    JOINT rThigh
    {
      OFFSET 0 -1.70687 -2.19456
      CHANNELS 3 Zrotation Xrotation Yrotation
      JOINT rShin
      {
        OFFSET 0 -36.8199 0.73152
        CHANNELS 3 Zrotation Xrotation Yrotation
        JOINT rFoot
        {
          OFFSET 0.73152 -45.1104 -5.12064
          CHANNELS 3 Zrotation Xrotation Yrotation
          End Site
          {
            OFFSET -1.1221 -3.69964 12.103
          }
        }
      }
    }
  }
  JOINT lButtock
  {
    OFFSET 8.77824 4.35084 1.2192
    CHANNELS 3 Zrotation Xrotation Yrotation
    JOINT lThigh
    {
      OFFSET 0 -1.70687 -2.19456
      CHANNELS 3 Zrotation Xrotation Yrotation
      JOINT lShin
      {
        OFFSET 0 -36.8199 0.73152
        CHANNELS 3 Zrotation Xrotation Yrotation
        JOINT lFoot
        {
          OFFSET -0.73152 -45.1104 -5.12064
          CHANNELS 3 Zrotation Xrotation Yrotation
          End Site
          {
            OFFSET 1.1221 -3.69964 12.103
          }
        }
      }
    }
  }
}
MOTION
Frames:	5
Frame Time:	0.00833333
24.5889 81.0333 -8.53818 -329.703 256.016 330.762 9.20371 4.93751 -4.40774 -2.48713 -7.39763 -1.1048 -2.31096 16.8792 5.64681 11.4092 -32.3111 14.5358 -0.0 0.0 0.0 -0.0 0.0 0.0 4.25543e-14 -1.96801e-13 1.92821e-14 104.902 36.9875 -20.9392 -28.2819 -32.7054 71.5926 -0.0451464 -6.05289 -0.853889 7.86329e-11 9.91633e-11 3.49161e-11 1.36656e-10 1.7321e-10 5.85365e-11 7.86364e-11 9.91681e-11 3.49098e-11 7.73091 5.47488 0.417314 7.86311e-11 9.91677e-11 3.49161e-11 2.90554 0.965183 0.102902 7.86382e-11 9.9167e-11 3.49177e-11 10.2786 0.731801 0.0259123 7.86313e-11 9.91657e-11 3.49289e-11 2.22167 -0.733487 -0.20892 4.25282e-14 -1.96792e-13 1.88845e-14 -79.3309 19.2761 -10.4967 28.3435 -33.3931 -72.7092 2.10056 37.4798 -6.18632 1.90242e-09 4.77942e-11 -7.71348e-10 3.26512e-09 8.07352e-11 -1.387e-09 1.90243e-09 4.7795e-11 -7.71342e-10 -7.73091 5.47488 -0.417314 1.90242e-09 4.77974e-11 -7.71348e-10 -2.90554 0.965183 -0.102902 1.90241e-09 4.77953e-11 -7.71341e-10 -10.2786 0.731801 -0.0259123 1.90242e-09 4.77914e-11 -7.71348e-10 -2.22167 -0.733487 0.20892 -2.03217e-16 0.0 -3.88251e-19 10.0197 -23.7144 -9.42782 -0.282836 38.9758 0.290897 2.0633 -19.4202 7.31354 2.03217e-16 0.0 3.88251e-19 23.1048 -29.5774 28.9114 5.52548 80.3583 -5.65606 -0.640398 15.6235 7.62153
22.7889 81.6239 -8.89455 -335.828 252.965 336.008 9.57539 5.02099 -4.79488 -1.87423 -7.4614 -1.17415 -1.99662 16.7774 6.60449 11.3476 -31.943 16.4032 -0.0 0.0 0.0 -0.0 0.0 0.0 4.8143e-14 -1.97812e-13 -2.45988e-14 104.441 37.4473 -19.9106 -28.2965 -32.8633 71.8546 -0.047621 -6.19853 -0.874622 3.75272e-10 4.24055e-10 -6.03243e-10 6.52266e-10 7.33071e-10 -1.04269e-09 3.75277e-10 4.2406e-10 -6.0325e-10 7.73091 5.47488 0.417314 3.75271e-10 4.24059e-10 -6.03242e-10 2.90554 0.965183 0.102902 3.75277e-10 4.24059e-10 -6.03242e-10 10.2786 0.731801 0.0259123 3.75271e-10 4.24058e-10 -6.03232e-10 2.22167 -0.733487 -0.20892 4.81103e-14 -1.97804e-13 -2.49246e-14 -78.5645 15.7778 -9.12203 28.3744 -33.7555 -73.2696 1.93553 36.2811 -5.91787 6.45709e-10 1.31232e-10 -7.54884e-11 1.11145e-09 2.25848e-10 -1.50619e-10 6.45709e-10 1.31232e-10 -7.54787e-11 -7.73091 5.47488 -0.417314 6.45708e-10 1.31234e-10 -7.54878e-11 -2.90554 0.965183 -0.102902 6.45699e-10 1.31232e-10 -7.54813e-11 -10.2786 0.731801 -0.0259123 6.4571e-10 1.31229e-10 -7.54894e-11 -2.22167 -0.733487 0.20892 -2.03217e-16 0.0 -3.88251e-19 10.7419 -22.4442 -9.11262 -0.242432 38.0322 0.344923 2.59802 -19.7424 8.70853 2.03217e-16 0.0 3.88251e-19 26.9711 -31.8659 31.9363 6.63627 81.8105 -6.78611 -0.613361 15.2542 8.07037
21.1105 81.9516 -9.15109 -339.987 250.234 339.249 9.33857 5.05904 -5.13623 -1.07744 -7.58353 -1.23214 -1.80694 16.6306 7.5063 11.3476 -31.3328 18.1358 -0.0 0.0 0.0 -0.0 0.0 0.0 6.75463e-14 -3.34871e-13 -8.55023e-14 104.004 37.8571 -19.0154 -28.3086 -33.0101 72.1022 -0.0481911 -6.23314 -0.87955 6.2262e-10 8.54178e-10 -6.12353e-10 1.08058e-09 1.47512e-09 -1.05671e-09 6.22627e-10 8.54182e-10 -6.12361e-10 7.73091 5.47488 0.417314 6.22619e-10 8.5418e-10 -6.12351e-10 2.90554 0.965183 0.102902 6.22625e-10 8.54181e-10 -6.12352e-10 10.2786 0.731801 0.0259123 6.22619e-10 8.54181e-10 -6.12346e-10 2.22167 -0.733487 -0.20892 6.75043e-14 -3.34866e-13 -8.57166e-14 -77.6835 12.191 -7.72216 28.4023 -34.2415 -74.0644 1.739 34.7114 -5.58198 -3.95069e-10 2.7334e-10 1.09324e-09 -6.59973e-10 4.72853e-10 1.89441e-09 -3.95071e-10 2.73338e-10 1.09326e-09 -7.73091 5.47488 -0.417314 -3.9507e-10 2.7334e-10 1.09325e-09 -2.90554 0.965183 -0.102902 -3.95075e-10 2.73338e-10 1.09325e-09 -10.2786 0.731801 -0.0259123 -3.95067e-10 2.73337e-10 1.09324e-09 -2.22167 -0.733487 0.20892 -2.03217e-16 0.0 -3.88251e-19 10.99 -21.2711 -8.59304 -0.197121 37.1401 0.428572 2.92837 -20.1178 9.53778 2.03217e-16 0.0 3.88251e-19 29.7665 -34.0114 34.0974 6.74939 81.9884 -6.94098 -0.412175 13.7251 8.57146
19.8145 81.9782 -9.23265 -341.222 248.271 341.591 8.97209 4.97044 -5.3345 -0.317149 -7.71754 -1.26185 -1.68421 16.4422 8.31532 11.3715 -30.6588 19.6748 -0.0 0.0 0.0 -0.0 0.0 0.0 8.28003e-14 -4.87825e-13 -1.60842e-13 103.575 38.1792 -18.2902 -28.3243 -33.1888 72.3926 -0.0483317 -6.25038 -0.88199 8.3848e-10 1.33866e-09 -4.24402e-10 1.45389e-09 2.31128e-09 -7.30243e-10 8.38488e-10 1.33867e-09 -4.24411e-10 7.73091 5.47488 0.417314 8.38479e-10 1.33867e-09 -4.24399e-10 2.90554 0.965183 0.102902 8.38484e-10 1.33867e-09 -4.24402e-10 10.2786 0.731801 0.0259123 8.38477e-10 1.33867e-09 -4.24397e-10 2.22167 -0.733487 -0.20892 8.27497e-14 -4.87823e-13 -1.6095e-13 -76.7261 8.55116 -6.36338 28.4207 -34.7839 -74.9782 1.55419 33.065 -5.24662 -1.2566e-09 4.97364e-10 2.31303e-09 -2.12161e-09 8.60955e-10 4.02146e-09 -1.2566e-09 4.9736e-10 2.31305e-09 -7.73091 5.47488 -0.417314 -1.2566e-09 4.97361e-10 2.31303e-09 -2.90554 0.965183 -0.102902 -1.2566e-09 4.97361e-10 2.31303e-09 -10.2786 0.731801 -0.0259123 -1.2566e-09 4.97361e-10 2.31302e-09 -2.22167 -0.733487 0.20892 -2.03217e-16 0.0 -3.88251e-19 11.0245 -20.2063 -7.92585 -0.150716 36.2775 0.523993 3.151 -20.499 10.0609 2.03217e-16 0.0 3.88251e-19 31.9678 -36.0101 35.719 6.06374 81.262 -6.31701 -0.0820647 11.4254 9.32322
19.14 81.7005 -8.91893 -338.288 248.942 340.852 8.95557 4.67393 -5.29258 0.18654 -7.81698 -1.24629 -1.5717 16.2159 8.99494 11.4069 -30.0958 20.9736 -0.0 0.0 0.0 -0.0 0.0 0.0 7.59411e-14 -5.3652e-13 -2.48034e-13 103.139 38.3757 -17.7725 -28.3472 -33.4404 72.7862 -0.049615 -6.34389 -0.895274 1.04065e-09 1.82665e-09 -4.71377e-10 1.80448e-09 3.15349e-09 -8.09997e-10 1.04066e-09 1.82665e-09 -4.71387e-10 7.73091 5.47488 0.417314 1.04065e-09 1.82665e-09 -4.71374e-10 2.90554 0.965183 0.102902 1.04066e-09 1.82665e-09 -4.71378e-10 10.2786 0.731801 0.0259123 1.04065e-09 1.82665e-09 -4.71374e-10 2.22167 -0.733487 -0.20892 7.58857e-14 -5.3652e-13 -2.48083e-13 -75.7516 4.89838 -5.10633 28.4313 -35.3255 -75.8846 1.40823 31.6379 -4.96744 -1.97557e-09 8.2655e-10 3.16205e-09 -3.34591e-09 1.42936e-09 5.50391e-09 -1.97558e-09 8.26546e-10 3.16207e-09 -7.73091 5.47488 -0.417314 -1.97558e-09 8.26546e-10 3.16205e-09 -2.90554 0.965183 -0.102902 -1.97558e-09 8.26546e-10 3.16205e-09 -10.2786 0.731801 -0.0259123 -1.97557e-09 8.26548e-10 3.16204e-09 -2.22167 -0.733487 0.20892 -2.03217e-16 0.0 -3.88251e-19 11.1127 -19.2623 -7.16513 -0.108265 35.4226 0.614104 3.36736 -20.8322 10.5385 2.03217e-16 0.0 3.88251e-19 34.1187 -37.7969 37.1433 5.1607 79.998 -5.49279 0.358078 8.74712 10.5202
